<svg data-v-fde0c5aa="" xmlns="http://www.w3.org/2000/svg" viewBox="0 0 300 300" class="iconLeft"><!----><defs data-v-fde0c5aa=""><!----></defs><rect data-v-fde0c5aa="" fill="transparent" x="0" y="0" width="300px" height="300px" class="logo-background-square"></rect><defs data-v-fde0c5aa=""><!----></defs><g data-v-fde0c5aa="" id="bfd4b1dd-7a58-45d0-a19e-8acc065bfefc" fill="#000000" transform="matrix(6.38002779926121,0,0,6.38002779926121,128.69902989907894,68.30374208343022)"><path d="M1.26 17.18L1.26 8.43L2.66 8.43L2.66 16.02L5.88 16.02L5.88 17.18L1.26 17.18ZM13.30 17.18L11.73 17.18L9.66 13.86L7.69 17.18L6.16 17.18L8.90 12.64L6.27 8.43L7.84 8.43L9.80 11.56L11.66 8.43L13.19 8.43L10.57 12.80L13.30 17.18ZM16.10 14.29L16.10 17.18L14.70 17.18L14.70 8.43L18.13 8.43Q19.07 8.43 19.59 8.71Q20.12 8.99 20.35 9.63Q20.58 10.26 20.58 11.38L20.58 11.38Q20.58 12.95 20.06 13.62Q19.54 14.29 18.34 14.29L18.34 14.29L16.10 14.29ZM16.10 13.19L18.14 13.19Q18.69 13.19 18.90 13.06Q19.11 12.94 19.11 12.60L19.11 12.60L19.11 10.18Q19.11 9.84 18.90 9.72Q18.69 9.59 18.14 9.59L18.14 9.59L16.10 9.59L16.10 13.19Z"></path></g><defs data-v-fde0c5aa=""><linearGradient data-v-fde0c5aa="" gradientTransform="rotate(25)" id="f6af5724-ea17-4a3d-8213-b82e8c46a840" x1="0%" y1="0%" x2="100%" y2="0%"><stop data-v-fde0c5aa="" offset="0%" stop-color="#AF6160" stop-opacity="1"></stop><stop data-v-fde0c5aa="" offset="100%" stop-color="#672323" stop-opacity="1"></stop></linearGradient></defs><g data-v-fde0c5aa="" id="df84f60b-f292-4c9f-82dd-72b9d1b02ae1" stroke="none" fill="url(#f6af5724-ea17-4a3d-8213-b82e8c46a840)" transform="matrix(2.6168082770407306,0,0,2.6168082770407306,40,108.13106756734831)"><path d="M4.029 14.362L14.362 4.028l.707.707L4.736 15.07zM17.135 27.47L27.47 17.135l.707.707-10.333 10.333zM4.029 17.841l.707-.707 10.333 10.334-.707.707zM17.135 4.735l.708-.707L28.176 14.36l-.707.707z"></path><g><path d="M16 1.414l1.683 1.683L16 4.779l-1.683-1.683L16 1.414M16 0l-3.097 3.097L16 6.194l3.097-3.097L16 0zM16 27.221l1.683 1.683L16 30.586l-1.683-1.683L16 27.221m0-1.415l-3.097 3.097L16 32l3.097-3.097L16 25.806zM3.097 14.317L4.779 16l-1.683 1.683L1.414 16l1.683-1.683m0-1.414L0 16l3.097 3.097L6.194 16l-3.097-3.097zM28.903 14.317L30.586 16l-1.683 1.683L27.221 16l1.682-1.683m0-1.414L25.806 16l3.097 3.097L32 16l-3.097-3.097z"></path></g></g><!----></svg>