<svg data-v-fde0c5aa="" xmlns="http://www.w3.org/2000/svg" viewBox="0 0 300 300" class="font"><!----><defs data-v-fde0c5aa=""><!----></defs><rect data-v-fde0c5aa="" fill="transparent" x="0" y="0" width="300px" height="300px" class="logo-background-square"></rect><defs data-v-fde0c5aa=""><linearGradient data-v-fde0c5aa="" gradientTransform="rotate(25)" id="498d6017-b44a-47eb-a122-ac234af9aff0" x1="0%" y1="0%" x2="100%" y2="0%"><stop data-v-fde0c5aa="" offset="0%" stop-color="#AF6160" stop-opacity="1"></stop><stop data-v-fde0c5aa="" offset="100%" stop-color="#672323" stop-opacity="1"></stop></linearGradient></defs><g data-v-fde0c5aa="" id="357cfdcd-9d9f-4d14-9220-ff9cc581c056" fill="url(#498d6017-b44a-47eb-a122-ac234af9aff0)" transform="matrix(11.38716374094651,0,0,11.38716374094651,25.652173795003854,4.187364822093343)"><path d="M1.26 17.18L1.26 8.43L2.66 8.43L2.66 16.02L5.88 16.02L5.88 17.18L1.26 17.18ZM13.30 17.18L11.73 17.18L9.66 13.86L7.69 17.18L6.16 17.18L8.90 12.64L6.27 8.43L7.84 8.43L9.80 11.56L11.66 8.43L13.19 8.43L10.57 12.80L13.30 17.18ZM16.10 14.29L16.10 17.18L14.70 17.18L14.70 8.43L18.13 8.43Q19.07 8.43 19.59 8.71Q20.12 8.99 20.35 9.63Q20.58 10.26 20.58 11.38L20.58 11.38Q20.58 12.95 20.06 13.62Q19.54 14.29 18.34 14.29L18.34 14.29L16.10 14.29ZM16.10 13.19L18.14 13.19Q18.69 13.19 18.90 13.06Q19.11 12.94 19.11 12.60L19.11 12.60L19.11 10.18Q19.11 9.84 18.90 9.72Q18.69 9.59 18.14 9.59L18.14 9.59L16.10 9.59L16.10 13.19Z"></path></g><!----><!----></svg>